# xmcd
#
# Track frame offsets:
#	150
#	17987
#	37706
#	54601
#	76918
#	94541
#	111717
#	126275
#	143387
#	159370
#	179811
#	209547
#
# Disc length: 3019 seconds
#
# Revision: 0
# Processed by: cddbd v1.4PL0 Copyright (c) Steve Scherf et al.
# Submitted via: dBpowerAMP V4.0
#
DISCID=a00bc90c
DTITLE=Javier Cartin - Siempre Romantico
DYEAR=1900
DGENRE=Ballad
TTITLE0=Un niño una Historia
TTITLE1=Yo no naci para amar
TTITLE2=Cada dia que pasa
TTITLE3=Medley Junior (Si no te amase, En algun Lugar, Perdoname)
TTITLE4=Pero Anoche en la playa
TTITLE5=Te quiero
TTITLE6=Vete lejos de mi
TTITLE7=Medley Luis Aguile (Regresa a mi, Amemonos asi)
TTITLE8=Inventa
TTITLE9=Que Dios se apiade de mi
TTITLE10=Cada dia que pasa (pista musical)
TTITLE11=Medley Junior (version larga)
EXTD=
EXTT0=
EXTT1=
EXTT2=
EXTT3=
EXTT4=
EXTT5=
EXTT6=
EXTT7=
EXTT8=
EXTT9=
EXTT10=
EXTT11=
PLAYORDER=
